<?xml version="1.0" encoding="UTF-8" standalone="no"?>
<!-- Created with Inkscape (http://www.inkscape.org/) -->

<svg
   width="512"
   height="512"
   viewBox="0 0 135.46666 135.46667"
   version="1.1"
   id="svg29312"
   xmlns="http://www.w3.org/2000/svg"
   xmlns:svg="http://www.w3.org/2000/svg">
  <defs
     id="defs29309" />
  <g
     id="layer1">
    <g
       transform="scale(0.264583)"
       id="g1">
      <path
         id="rect2"
         style="fill:#010409;fill-opacity:1;stroke-width:75.0001;paint-order:stroke fill markers"
         d="M 256.00032,0 A 256.00031,256.00031 0 0 0 0,256.00032 256.00031,256.00031 0 0 0 256.00032,512.00064 256.00031,256.00031 0 0 0 512.00064,256.00032 256.00031,256.00031 0 0 0 256.00032,0 Z m 1.16797,112.89858 c 0.0932,0 0.1861,0.013 0.2793,0.0137 0.32147,0.002 0.64164,0.0376 0.96289,0.0469 10.45255,-0.33079 21.00907,3.45186 28.98246,11.42774 11.44942,11.46594 14.33663,28.226 8.67579,42.35943 l 54.90241,54.89851 c 0.16648,-0.0574 0.33682,-0.0992 0.50391,-0.1543 0.62654,-0.20626 1.25254,-0.40623 1.88672,-0.58008 0.43431,-0.11943 0.87315,-0.21404 1.31055,-0.31836 0.98698,-0.23437 1.97743,-0.43288 2.97656,-0.58984 0.53776,-0.0853 1.07502,-0.17148 1.61524,-0.23438 0.5315,-0.0611 1.06256,-0.10718 1.59571,-0.14648 0.65428,-0.0494 1.30923,-0.077 1.96484,-0.0937 0.42096,-0.01 0.84069,-0.0323 1.26172,-0.0293 1.05937,0.007 2.11584,0.0604 3.17188,0.15234 0.2775,0.0247 0.55306,0.0632 0.83008,0.0937 0.91968,0.0997 1.836,0.23183 2.74805,0.39649 0.22812,0.0416 0.4561,0.0793 0.68359,0.125 2.3532,0.46802 4.66656,1.15672 6.91798,2.06055 0.0639,0.0257 0.12761,0.052 0.19141,0.0781 3.49962,1.4266 6.83143,3.3821 9.88087,5.86915 0.01,0.008 0.0193,0.0174 0.0293,0.0254 1.01988,0.83348 2.01946,1.70367 2.9707,2.65626 7.66592,7.66383 11.49621,17.71026 11.49221,27.75589 0.004,10.04563 -3.82629,20.09206 -11.49221,27.75589 -0.95124,0.95259 -1.95082,1.82278 -2.9707,2.65626 -0.01,0.008 -0.0193,0.0174 -0.0293,0.0254 -3.04944,2.48705 -6.38125,4.44255 -9.88087,5.86915 -0.0638,0.0261 -0.12751,0.0523 -0.19141,0.0781 -2.24396,0.90083 -4.54938,1.58678 -6.89454,2.05469 -0.24313,0.049 -0.48662,0.0904 -0.73047,0.13477 -0.90429,0.16269 -1.81284,0.29378 -2.72461,0.39258 -0.27702,0.0305 -0.55258,0.0691 -0.83008,0.0937 -1.0554,0.0918 -2.1112,0.14534 -3.16993,0.15234 -0.43665,0.004 -0.87201,-0.0204 -1.30859,-0.0312 -0.62951,-0.0168 -1.25842,-0.0429 -1.88672,-0.0898 -0.54625,-0.0399 -1.09024,-0.0878 -1.63477,-0.15039 -0.53823,-0.0628 -1.0736,-0.14753 -1.60938,-0.23243 -0.99913,-0.15696 -1.98958,-0.35547 -2.97656,-0.58984 -0.4374,-0.10432 -0.87624,-0.19893 -1.31055,-0.31836 -0.63418,-0.17385 -1.26018,-0.37382 -1.88672,-0.58008 -0.16709,-0.0551 -0.33743,-0.0969 -0.50391,-0.1543 l -54.9278,54.9239 c 3.82244,9.5396 3.76237,20.27068 -0.20508,29.77152 l -4.69532,4.36524 c -0.39252,0.68203 -0.76654,1.37192 -1.20313,2.03516 -0.69764,1.05988 -1.45978,2.08878 -2.27148,3.0918 -0.0388,0.0479 -0.0761,0.0967 -0.11524,0.14453 -0.82863,1.01414 -1.69462,2.00867 -2.64063,2.95508 -0.95424,0.95448 -1.95742,1.82714 -2.98047,2.66212 h -0.002 c -2.43955,1.99089 -5.06806,3.62076 -7.8086,4.9336 l -1.92579,1.79101 c -4.54493,1.53476 -9.31175,2.19732 -14.0508,2.0254 -0.23266,0.005 -0.46449,0.032 -0.69726,0.0332 -0.30899,0.002 -0.61683,-0.0126 -0.92579,-0.0176 -0.78509,-0.0145 -1.56815,-0.05 -2.35156,-0.11133 -0.42865,-0.0327 -0.85562,-0.0666 -1.28321,-0.11328 -0.81409,-0.0906 -1.62517,-0.20828 -2.43359,-0.34961 -0.65432,-0.11313 -1.3022,-0.25394 -1.95118,-0.40039 -0.56498,-0.12847 -1.1294,-0.25847 -1.68945,-0.41211 -0.57489,-0.15682 -1.14428,-0.33023 -1.71289,-0.51367 -0.15544,-0.0503 -0.31382,-0.0883 -0.46876,-0.14063 l -0.041,-0.0371 c -5.53546,-1.87036 -10.74681,-4.96809 -15.15627,-9.37891 -3.70238,-3.70772 -6.48916,-7.9762 -8.40235,-12.52346 l -0.043,-0.0391 c -0.0379,-0.0908 -0.0663,-0.18439 -0.10352,-0.27539 -0.0929,-0.22636 -0.16736,-0.45784 -0.25586,-0.68555 -0.32192,-0.83164 -0.61751,-1.67013 -0.88086,-2.51758 -0.12113,-0.38826 -0.23496,-0.77686 -0.34375,-1.16797 -0.20678,-0.74625 -0.38684,-1.49702 -0.54883,-2.25196 -0.0803,-0.37277 -0.17083,-0.74264 -0.24023,-1.11718 -0.19376,-1.05056 -0.34927,-2.10567 -0.45703,-3.16602 -0.0425,-0.41554 -0.0547,-0.8316 -0.084,-1.24805 -0.0479,-0.68653 -0.0877,-1.3728 -0.0996,-2.06055 -0.009,-0.51355 -0.005,-1.02556 0.006,-1.53907 0.0134,-0.62321 0.0468,-1.24509 0.0898,-1.86719 0.0348,-0.50655 0.0628,-1.01243 0.11719,-1.51758 0.0948,-0.87734 0.22508,-1.75055 0.37891,-2.62109 0.10948,-0.62103 0.24719,-1.2354 0.38672,-1.85157 0.13373,-0.58941 0.26843,-1.17781 0.42969,-1.76172 0.15253,-0.55333 0.32277,-1.10092 0.5,-1.64844 0.16853,-0.51981 0.35214,-1.03503 0.54297,-1.54883 0.11498,-0.3101 0.23882,-0.61713 0.35742,-0.92578 l -54.9278,-54.9239 c -13.73377,4.73406 -29.56906,1.67481 -40.53912,-9.31056 -15.32288,-15.31876 -15.32288,-40.15285 0,-55.48444 15.33403,-15.33214 40.16131,-15.33214 55.50202,0 11.52448,11.5359 14.37765,28.47146 8.53322,42.67193 l 52.93366,52.9317 V 188.44359 c -4.67935,-1.91565 -9.06431,-4.77769 -12.85158,-8.56055 -0.53174,-0.5317 -1.00126,-1.1005 -1.4961,-1.6543 -0.22524,-0.2516 -0.46209,-0.49604 -0.67968,-0.75196 -0.46186,-0.54422 -0.89291,-1.10328 -1.32032,-1.66601 -0.27841,-0.36585 -0.55065,-0.73426 -0.81445,-1.10743 -0.38579,-0.54675 -0.76461,-1.09482 -1.11914,-1.65625 -0.26343,-0.41637 -0.50382,-0.84177 -0.75001,-1.26563 -0.54347,-0.93739 -1.04449,-1.88936 -1.5039,-2.85937 -0.23371,-0.4926 -0.47553,-0.98247 -0.6875,-1.48243 -0.23269,-0.54977 -0.43807,-1.10631 -0.64454,-1.66406 -0.18696,-0.50415 -0.36575,-1.0096 -0.53125,-1.51954 -0.17865,-0.5514 -0.3503,-1.10284 -0.5039,-1.66015 -0.1611,-0.58341 -0.29608,-1.17087 -0.42969,-1.75977 -0.13953,-0.61617 -0.27724,-1.23054 -0.38672,-1.85157 -0.15383,-0.87054 -0.28411,-1.74373 -0.37891,-2.62109 -0.0544,-0.50514 -0.0824,-1.01103 -0.11719,-1.51758 -0.0429,-0.6221 -0.0763,-1.24397 -0.0898,-1.86719 -0.011,-0.51351 -0.0149,-1.02552 -0.006,-1.53907 0.0119,-0.68775 0.0517,-1.37402 0.0996,-2.06055 0.0293,-0.41641 0.0415,-0.83255 0.084,-1.24805 0.10761,-1.05887 0.2617,-2.11298 0.45507,-3.16211 0.0702,-0.37912 0.16274,-0.75352 0.24414,-1.13086 0.16132,-0.75093 0.34125,-1.49791 0.54688,-2.24024 0.10966,-0.3944 0.22349,-0.78623 0.3457,-1.17773 0.26234,-0.84364 0.55657,-1.6779 0.87696,-2.50587 0.089,-0.22915 0.16431,-0.46166 0.25781,-0.68945 0.0372,-0.091 0.0656,-0.18459 0.10352,-0.27539 l 0.043,-0.0391 c 1.91319,-4.54726 4.69997,-8.81574 8.40235,-12.52346 4.40998,-4.41135 9.62205,-7.51056 15.15822,-9.38087 l 0.0391,-0.0352 c 0.14534,-0.0491 0.29368,-0.0855 0.43946,-0.13282 0.58719,-0.18992 1.17568,-0.36776 1.76953,-0.52929 0.5388,-0.1474 1.08165,-0.27239 1.625,-0.39649 0.64898,-0.1471 1.29683,-0.28857 1.95118,-0.40234 0.82977,-0.14588 1.66228,-0.26893 2.49805,-0.36133 0.41186,-0.0447 0.82348,-0.0738 1.23633,-0.10547 0.78993,-0.0623 1.57944,-0.0987 2.37109,-0.11328 0.21579,-0.004 0.43068,-0.0312 0.64649,-0.0312 z m 17.37307,77.9376 v 135.75016 l 52.93366,-52.9317 c -0.15174,-0.36868 -0.2721,-0.74692 -0.41211,-1.11914 -0.15214,-0.40459 -0.31091,-0.80642 -0.44922,-1.21485 -0.16779,-0.49535 -0.31157,-0.99571 -0.45899,-1.49609 -0.12359,-0.41952 -0.25398,-0.83713 -0.36328,-1.25977 -0.12927,-0.50002 -0.23451,-1.00401 -0.34375,-1.50782 -0.0901,-0.41534 -0.18717,-0.82856 -0.26367,-1.24609 -0.0979,-0.53455 -0.17245,-1.07193 -0.24805,-1.60938 -0.0562,-0.39901 -0.11821,-0.79701 -0.16211,-1.19727 -0.0571,-0.52253 -0.0908,-1.04626 -0.12695,-1.57031 -0.0298,-0.42982 -0.0644,-0.85864 -0.0801,-1.28906 -0.0177,-0.47797 -0.0137,-0.95538 -0.0137,-1.4336 0,-0.47928 -0.004,-0.95848 0.0137,-1.4375 0.0156,-0.42661 0.0507,-0.85134 0.0801,-1.27735 0.0365,-0.52867 0.0693,-1.05685 0.12695,-1.58398 0.0435,-0.3964 0.10651,-0.79038 0.16211,-1.18555 0.0758,-0.53966 0.14975,-1.07851 0.24805,-1.61524 0.0765,-0.41753 0.17357,-0.83075 0.26367,-1.24609 0.10924,-0.50381 0.21448,-1.0078 0.34375,-1.50782 0.1093,-0.42264 0.23969,-0.84027 0.36328,-1.25976 0.14742,-0.5004 0.2912,-1.00075 0.45899,-1.4961 0.13831,-0.40843 0.29708,-0.81026 0.44922,-1.21485 0.14001,-0.37222 0.26037,-0.75046 0.41211,-1.11914 z" />
    </g>
  </g>
</svg>
